<svg width="22" height="19" viewBox="0 0 22 19" fill="none" xmlns="http://www.w3.org/2000/svg">
<path fill-rule="evenodd" clip-rule="evenodd" d="M13.8489 2.65799C13.3921 2.6578 12.9409 2.75904 12.5279 2.95441C12.115 3.14977 11.7506 3.43439 11.4609 3.78771C11.1713 4.14103 10.9638 4.55424 10.8533 4.99752C10.7428 5.44079 10.7321 5.90307 10.8219 6.35099C10.8529 6.50619 10.8465 6.66651 10.8035 6.81879C10.7604 6.97106 10.6817 7.11093 10.5741 7.2269C10.4664 7.34287 10.3327 7.43164 10.1841 7.48589C10.0354 7.54015 9.876 7.55834 9.71894 7.53899C7.56867 7.27485 5.54166 6.39094 3.88494 4.99499C3.91594 5.59699 4.12494 6.23699 4.57794 6.90699L5.25694 7.91099L4.14194 8.38599L3.92694 8.47799C4.08694 8.66099 4.27894 8.84799 4.49394 9.03299C4.78135 9.279 5.08541 9.50487 5.40394 9.70899L5.41494 9.71599L6.96394 10.655L5.34394 11.465C5.26394 11.505 5.18394 11.541 5.10394 11.573C5.45228 11.8624 5.83602 12.1064 6.24594 12.299L7.63594 12.956L6.47194 13.96C5.83694 14.508 5.19794 14.917 4.36894 15.133C5.64037 15.8102 7.05938 16.163 8.49994 16.16C13.3059 16.16 17.1759 12.325 17.1759 7.62599V7.10599L17.6009 6.80699C18.2649 6.34099 18.7339 5.71099 19.0699 4.98999H16.9099L16.6379 4.41999C16.3875 3.89266 15.9926 3.44719 15.4991 3.1353C15.0056 2.82341 14.4337 2.65791 13.8499 2.65799H13.8489ZM2.56894 9.95799C2.47457 10.0661 2.40457 10.1932 2.36367 10.3307C2.32278 10.4682 2.31196 10.6129 2.33194 10.755C2.44494 11.556 2.92394 12.246 3.45394 12.773C3.59794 12.916 3.75194 13.053 3.91394 13.184L3.83894 13.204C3.35794 13.324 2.70894 13.349 1.62794 13.244C1.4238 13.224 1.21843 13.2672 1.03969 13.3678C0.860951 13.4684 0.717478 13.6216 0.628726 13.8065C0.539975 13.9915 0.510238 14.1992 0.543548 14.4016C0.576858 14.604 0.671603 14.7913 0.814938 14.938C1.81571 15.9609 3.01123 16.773 4.33096 17.3264C5.65069 17.8798 7.06789 18.1632 8.49894 18.16C14.2119 18.16 18.8979 13.724 19.1629 8.12599C20.4529 7.04299 21.0979 5.57599 21.4459 4.24299C21.4846 4.09504 21.4889 3.94019 21.4583 3.79034C21.4278 3.6405 21.3633 3.49965 21.2698 3.37863C21.1763 3.25762 21.0563 3.15965 20.9191 3.09228C20.7818 3.0249 20.6309 2.98991 20.4779 2.98999H18.1249C17.5494 2.09631 16.7083 1.40543 15.7198 1.01442C14.7314 0.623417 13.6453 0.55194 12.6141 0.810035C11.5829 1.06813 10.6585 1.64283 9.97082 2.45337C9.28311 3.26391 8.86664 4.26956 8.77994 5.32899C6.93659 4.84914 5.28727 3.8098 4.05894 2.35399C3.95016 2.22537 3.81065 2.12632 3.65336 2.06602C3.49607 2.00572 3.32609 1.98614 3.15921 2.00908C2.99233 2.03202 2.83395 2.09675 2.69876 2.19726C2.56358 2.29776 2.45598 2.43079 2.38594 2.58399C1.77994 3.90599 1.66394 5.42999 2.33994 6.97999L2.10594 7.07999C1.88201 7.17541 1.70058 7.34922 1.59564 7.56885C1.49071 7.78847 1.46948 8.03883 1.53594 8.27299C1.72194 8.92499 2.14094 9.50099 2.56894 9.95799Z" fill="#26CE8D"/>
</svg>
