<svg width="14" height="22" viewBox="0 0 14 22" fill="none" xmlns="http://www.w3.org/2000/svg">
<path fill-rule="evenodd" clip-rule="evenodd" d="M10.6532 7.46445C11.0038 7.46421 11.3544 7.46398 11.7049 7.46532C12.4994 7.46805 12.978 7.97812 12.8891 8.76944C12.7683 9.84884 12.6329 10.9278 12.4766 12.0026C12.3977 12.5451 11.9642 12.8928 11.4182 12.9011C10.7736 12.9106 10.1291 12.9106 9.48499 12.9001C9.31406 12.8974 9.26802 12.9371 9.26893 13.1126C9.2744 15.0129 9.27384 16.9133 9.27328 18.814C9.27319 19.1308 9.2731 19.4476 9.27303 19.7644C9.27303 20.5476 8.8204 20.9988 8.03592 20.9993C7.86962 20.9994 7.70332 20.9994 7.53702 20.9995C6.70551 21 5.87401 21.0004 5.0425 20.9993C4.28993 20.9984 3.83137 20.5366 3.83091 19.7799C3.83023 18.9536 3.83032 18.1273 3.8304 17.301C3.83043 17.0256 3.83046 16.7502 3.83046 16.4747C3.83046 16.2181 3.83034 15.9615 3.83022 15.7048C3.82982 14.8321 3.82942 13.9591 3.83365 13.0866C3.8341 12.9462 3.80584 12.8974 3.65496 12.9006C3.16538 12.9103 2.67623 12.9072 2.18668 12.9041L2.13752 12.9038C1.47292 12.8988 1.00387 12.4284 1.00205 11.7624C0.999316 10.7158 0.999316 9.6697 1.00205 8.62312C1.00296 7.94713 1.46882 7.47535 2.14846 7.46623C2.65397 7.45939 3.15994 7.45894 3.66545 7.46851C3.80676 7.47124 3.83365 7.4252 3.83365 7.29484C3.83355 7.22399 3.83334 7.15316 3.83312 7.08235C3.83125 6.46787 3.82938 5.85437 3.90704 5.24088C4.18236 3.0675 5.78003 1.41786 7.937 1.08647C8.72909 0.964684 9.52163 0.997386 10.3146 1.03011L10.3219 1.03041C10.4073 1.03394 10.4928 1.03705 10.5783 1.04017C11.067 1.05798 11.5567 1.07583 12.0381 1.17126C12.5327 1.26972 12.8846 1.65079 12.8946 2.15539C12.9155 3.24299 12.9206 4.33151 12.8973 5.41865C12.8846 6.01807 12.3918 6.43105 11.7514 6.43743C11.2422 6.44207 10.7332 6.44092 10.2243 6.43978C10.0335 6.43935 9.84264 6.43892 9.65182 6.43879C9.43173 6.43857 9.33689 6.43427 9.29738 6.47893C9.2575 6.52399 9.27394 6.61888 9.27486 6.81804C9.27526 6.88074 9.2674 6.94967 9.25953 7.01878C9.24072 7.1838 9.2218 7.34982 9.31497 7.43432C9.39629 7.50825 9.55945 7.49265 9.72116 7.47718C9.78876 7.47071 9.85611 7.46427 9.91712 7.46441C10.1624 7.46478 10.4078 7.46462 10.6532 7.46445ZM10.9509 11.519C11.0936 11.5199 11.1556 11.493 11.1734 11.3371C11.2424 10.7327 11.3179 10.1294 11.3934 9.52568C11.4201 9.3121 11.4469 9.09848 11.4733 8.88476C11.4168 8.85686 11.3587 8.8602 11.3015 8.86349C11.283 8.86456 11.2646 8.86562 11.2463 8.86562L11.0578 8.86537C10.0536 8.86406 9.04976 8.86275 8.04595 8.8679C7.91239 8.86835 7.86863 8.83781 7.87045 8.69787C7.8741 8.34804 7.87342 7.9982 7.87273 7.6483C7.87205 7.29839 7.87136 6.94842 7.87501 6.59833C7.8855 5.66981 8.52502 5.04396 9.45491 5.04123C9.52506 5.04113 9.59521 5.04102 9.66536 5.0409C10.226 5.04 10.7862 5.0391 11.3461 5.04396C11.4742 5.04488 11.5235 5.023 11.5216 4.8785C11.5134 4.13732 11.5157 3.39615 11.5203 2.65452C11.5207 2.5474 11.5029 2.49817 11.3803 2.49088C11.2422 2.48203 11.1041 2.47256 10.966 2.4631C10.1363 2.40621 9.30614 2.34929 8.47534 2.42706C7.53588 2.51504 6.70217 2.85189 6.0786 3.59626C5.51246 4.27088 5.27543 5.07496 5.24717 5.93556C5.2182 6.81579 5.22714 7.6969 5.23608 8.57717L5.23668 8.63725C5.23896 8.83736 5.17515 8.87109 4.99464 8.86881C4.59747 8.86408 4.20007 8.86436 3.80267 8.86464C3.39644 8.86493 2.99022 8.86522 2.58423 8.86015C2.4215 8.85832 2.39415 8.9071 2.39551 9.05615C2.40326 9.811 2.40326 10.5668 2.39551 11.3216C2.39415 11.4739 2.42925 11.5213 2.58924 11.5194C2.96541 11.5154 3.34159 11.5157 3.71776 11.5161C4.14521 11.5165 4.57266 11.5168 5.00011 11.5108C5.19338 11.5076 5.23623 11.5632 5.23577 11.7501C5.23203 13.1462 5.23143 14.5424 5.23083 15.9386C5.23033 17.0921 5.22984 18.2455 5.22757 19.3989C5.22711 19.5598 5.26586 19.6044 5.4295 19.6022C6.17022 19.5926 6.91185 19.5912 7.65302 19.6026C7.83353 19.6054 7.87866 19.5639 7.8782 19.3793C7.87463 18.0491 7.87405 16.719 7.87346 15.3888C7.87292 14.1695 7.87238 12.9502 7.86954 11.7309C7.86909 11.5609 7.90737 11.5099 8.08287 11.5117C8.59066 11.5161 9.09858 11.516 9.60649 11.516C10.0547 11.516 10.5029 11.516 10.9509 11.519Z" fill="#26CE8D"/>
<path d="M11.7049 7.46532L11.703 7.96531L11.7031 7.96531L11.7049 7.46532ZM10.6532 7.46445L10.6529 6.96445H10.6529L10.6532 7.46445ZM12.8891 8.76944L12.3922 8.71363L12.3922 8.71383L12.8891 8.76944ZM12.4766 12.0026L11.9818 11.9306L11.9818 11.9307L12.4766 12.0026ZM11.4182 12.9011L11.4256 13.401L11.4257 13.401L11.4182 12.9011ZM9.48499 12.9001L9.49313 12.4002L9.49299 12.4002L9.48499 12.9001ZM9.26893 13.1126L9.76893 13.1111L9.76892 13.11L9.26893 13.1126ZM9.27328 18.814L9.77328 18.8141L9.27328 18.814ZM9.27303 19.7644L8.77303 19.7643V19.7644H9.27303ZM8.03592 20.9993L8.03615 21.4993H8.03621L8.03592 20.9993ZM7.53702 20.9995L7.53675 20.4995H7.53675L7.53702 20.9995ZM5.0425 20.9993L5.04319 20.4993H5.04311L5.0425 20.9993ZM3.83091 19.7799L4.33091 19.7796L4.33091 19.7795L3.83091 19.7799ZM3.8304 17.301L3.3304 17.301L3.8304 17.301ZM3.83022 15.7048L3.33022 15.7051V15.7051L3.83022 15.7048ZM3.83365 13.0866L4.33364 13.089L4.33365 13.0882L3.83365 13.0866ZM3.65496 12.9006L3.66487 13.4005L3.66554 13.4005L3.65496 12.9006ZM2.18668 12.9041L2.18985 12.4041L2.18984 12.4041L2.18668 12.9041ZM2.13752 12.9038L2.13374 13.4038L2.13435 13.4038L2.13752 12.9038ZM1.00205 11.7624L0.502053 11.7637L0.502053 11.7638L1.00205 11.7624ZM1.00205 8.62312L1.50205 8.62442L1.50205 8.62379L1.00205 8.62312ZM2.14846 7.46623L2.15516 7.96618L2.15522 7.96618L2.14846 7.46623ZM3.66545 7.46851L3.67512 6.9686L3.67492 6.9686L3.66545 7.46851ZM3.83365 7.29484H4.33365L4.33365 7.29417L3.83365 7.29484ZM3.83312 7.08235L4.33312 7.08082V7.08082L3.83312 7.08235ZM3.90704 5.24088L3.411 5.17804L3.411 5.17809L3.90704 5.24088ZM7.937 1.08647L8.01293 1.58068L8.01299 1.58067L7.937 1.08647ZM10.3146 1.03011L10.3352 0.530532L10.3352 0.530532L10.3146 1.03011ZM10.3219 1.03041L10.3425 0.530834L10.3425 0.530832L10.3219 1.03041ZM10.5783 1.04017L10.5601 1.53984L10.5783 1.04017ZM12.0381 1.17126L12.1357 0.68088L12.1353 0.680801L12.0381 1.17126ZM12.8946 2.15539L13.3945 2.14575L13.3945 2.14545L12.8946 2.15539ZM12.8973 5.41865L12.3974 5.40796L12.3974 5.40801L12.8973 5.41865ZM11.7514 6.43743L11.7559 6.93741L11.7563 6.9374L11.7514 6.43743ZM10.2243 6.43978L10.2232 6.93978L10.2243 6.43978ZM9.65182 6.43879L9.65131 6.93879H9.6515L9.65182 6.43879ZM9.29738 6.47893L9.67182 6.81028L9.67182 6.81028L9.29738 6.47893ZM9.27486 6.81804L8.77486 6.82034L8.77487 6.82126L9.27486 6.81804ZM9.25953 7.01878L8.76274 6.96216V6.96216L9.25953 7.01878ZM9.31497 7.43432L9.65131 7.06435L9.65086 7.06395L9.31497 7.43432ZM9.72116 7.47718L9.76877 7.97491H9.76877L9.72116 7.47718ZM9.91712 7.46441L9.91601 7.9644L9.91635 7.96441L9.91712 7.46441ZM11.1734 11.3371L10.6766 11.2804L10.6766 11.2805L11.1734 11.3371ZM10.9509 11.519L10.9476 12.019L10.9477 12.019L10.9509 11.519ZM11.3934 9.52568L10.8973 9.46361V9.46361L11.3934 9.52568ZM11.4733 8.88476L11.9695 8.94617L12.0131 8.59373L11.6947 8.43646L11.4733 8.88476ZM11.3015 8.86349L11.2728 8.36432L11.2727 8.36432L11.3015 8.86349ZM11.2463 8.86562L11.2457 9.36562H11.2463V8.86562ZM11.0578 8.86537L11.0571 9.36537H11.0571L11.0578 8.86537ZM8.04595 8.8679L8.04765 9.3679L8.04851 9.36789L8.04595 8.8679ZM7.87045 8.69787L8.37041 8.70439L8.37043 8.70308L7.87045 8.69787ZM7.87273 7.6483L7.37273 7.64928L7.87273 7.6483ZM7.87501 6.59833L7.37504 6.59269L7.37504 6.59313L7.87501 6.59833ZM9.45491 5.04123L9.45418 4.54123L9.45344 4.54123L9.45491 5.04123ZM9.66536 5.0409L9.66616 5.5409H9.66616L9.66536 5.0409ZM11.3461 5.04396L11.3418 5.54395L11.3426 5.54395L11.3461 5.04396ZM11.5216 4.8785L11.0217 4.88403L11.0217 4.88481L11.5216 4.8785ZM11.5203 2.65452L12.0203 2.65759L12.0203 2.65665L11.5203 2.65452ZM11.3803 2.49088L11.3484 2.98986L11.3506 2.98999L11.3803 2.49088ZM10.966 2.4631L11.0002 1.96427H11.0002L10.966 2.4631ZM8.47534 2.42706L8.42874 1.92924L8.42872 1.92924L8.47534 2.42706ZM6.0786 3.59626L6.4616 3.91767L6.46188 3.91734L6.0786 3.59626ZM5.24717 5.93556L5.7469 5.95201L5.7469 5.95197L5.24717 5.93556ZM5.23608 8.57717L5.73605 8.5721V8.5721L5.23608 8.57717ZM5.23668 8.63725L4.73671 8.64232L4.73672 8.64294L5.23668 8.63725ZM4.99464 8.86881L5.00095 8.36885L5.0006 8.36884L4.99464 8.86881ZM3.80267 8.86464L3.80302 9.36464H3.80302L3.80267 8.86464ZM2.58423 8.86015L2.59047 8.36019L2.58983 8.36018L2.58423 8.86015ZM2.39551 9.05615L1.89554 9.06074L1.89554 9.06129L2.39551 9.05615ZM2.39551 11.3216L1.89554 11.3165L1.89553 11.3171L2.39551 11.3216ZM2.58924 11.5194L2.58385 11.0195L2.58354 11.0195L2.58924 11.5194ZM3.71776 11.5161L3.71821 11.0161H3.71821L3.71776 11.5161ZM5.00011 11.5108L5.0072 12.0107L5.00836 12.0107L5.00011 11.5108ZM5.23577 11.7501L5.73577 11.7514L5.73577 11.7513L5.23577 11.7501ZM5.23083 15.9386L4.73083 15.9384L5.23083 15.9386ZM5.22757 19.3989L5.72757 19.4003L5.72757 19.3999L5.22757 19.3989ZM5.4295 19.6022L5.42304 19.1022L5.42254 19.1022L5.4295 19.6022ZM7.65302 19.6026L7.64534 20.1026L7.64545 20.1026L7.65302 19.6026ZM7.8782 19.3793L8.3782 19.378L8.3782 19.3779L7.8782 19.3793ZM7.87346 15.3888L7.37346 15.389L7.87346 15.3888ZM7.86954 11.7309L8.36954 11.7298L8.36954 11.7296L7.86954 11.7309ZM8.08287 11.5117L8.07767 12.0117L8.07858 12.0117L8.08287 11.5117ZM9.60649 11.516L9.60647 11.016L9.60649 11.516ZM11.7068 6.96532C11.355 6.96397 11.0033 6.96421 10.6529 6.96445L10.6536 7.96445C11.0043 7.96421 11.3538 7.96398 11.703 7.96531L11.7068 6.96532ZM13.386 8.82525C13.4431 8.31694 13.3216 7.83809 12.9969 7.48381C12.6741 7.13169 12.2097 6.96705 11.7066 6.96532L11.7031 7.96531C11.9945 7.96632 12.1667 8.05808 12.2597 8.15951C12.3507 8.25878 12.424 8.43062 12.3922 8.71363L13.386 8.82525ZM12.9714 12.0746C13.1287 10.9933 13.2647 9.90883 13.386 8.82505L12.3922 8.71383C12.2719 9.78885 12.1372 10.8622 11.9818 11.9306L12.9714 12.0746ZM11.4257 13.401C12.1952 13.3894 12.8541 12.8811 12.9714 12.0746L11.9818 11.9307C11.9413 12.209 11.7333 12.3963 11.4106 12.4011L11.4257 13.401ZM9.47685 13.4001C10.1264 13.4106 10.7761 13.4106 11.4256 13.401L11.4107 12.4011C10.7711 12.4106 10.1318 12.4106 9.49313 12.4002L9.47685 13.4001ZM9.76892 13.11C9.76878 13.0822 9.7713 13.0934 9.76425 13.1225C9.75574 13.1577 9.73012 13.2316 9.65911 13.2999C9.58883 13.3675 9.51559 13.3896 9.4838 13.3964C9.45725 13.4021 9.44808 13.3996 9.47699 13.4001L9.49299 12.4002C9.41649 12.399 9.16169 12.3909 8.96593 12.5791C8.76597 12.7714 8.7685 13.0302 8.76894 13.1152L9.76892 13.11ZM9.77328 18.8141C9.77384 16.9136 9.7744 15.0124 9.76893 13.1111L8.76893 13.114C8.7744 15.0135 8.77384 16.913 8.77328 18.8138L9.77328 18.8141ZM9.77303 19.7645C9.7731 19.4477 9.77319 19.131 9.77328 18.8141L8.77328 18.8138C8.77319 19.1306 8.7731 19.4475 8.77303 19.7643L9.77303 19.7645ZM8.03621 21.4993C8.52324 21.499 8.97336 21.357 9.30183 21.0293C9.63049 20.7013 9.77303 20.2515 9.77303 19.7644H8.77303C8.77303 20.0605 8.68926 20.2278 8.59548 20.3214C8.50151 20.4152 8.33307 20.4991 8.03563 20.4993L8.03621 21.4993ZM7.53728 21.4995C7.70358 21.4994 7.86987 21.4994 8.03615 21.4993L8.03569 20.4993C7.86937 20.4994 7.70305 20.4994 7.53675 20.4995L7.53728 21.4995ZM5.04182 21.4993C5.87388 21.5004 6.70586 21.5 7.53728 21.4995L7.53675 20.4995C6.70517 20.5 5.87414 20.5004 5.04319 20.4993L5.04182 21.4993ZM3.33091 19.7802C3.3312 20.26 3.47868 20.702 3.79996 21.0254C4.12159 21.3492 4.56253 21.4987 5.0419 21.4993L5.04311 20.4993C4.7699 20.4989 4.60528 20.4172 4.50937 20.3206C4.41311 20.2237 4.33108 20.0566 4.33091 19.7796L3.33091 19.7802ZM3.3304 17.301C3.33032 18.1273 3.33023 18.9538 3.33091 19.7804L4.33091 19.7795C4.33023 18.9535 4.33032 18.1274 4.3304 17.3011L3.3304 17.301ZM3.33046 16.4747C3.33046 16.7501 3.33043 17.0256 3.3304 17.301L4.3304 17.3011C4.33043 17.0257 4.33046 16.7502 4.33046 16.4747H3.33046ZM3.33022 15.7051C3.33034 15.9618 3.33046 16.2183 3.33046 16.4747H4.33046C4.33046 16.218 4.33034 15.9613 4.33022 15.7046L3.33022 15.7051ZM3.33365 13.0842C3.32942 13.9582 3.32982 14.8326 3.33022 15.7051L4.33022 15.7046C4.32982 14.8317 4.32942 13.9599 4.33364 13.089L3.33365 13.0842ZM3.66554 13.4005C3.68169 13.4001 3.65912 13.4026 3.61862 13.3919C3.57015 13.3791 3.49281 13.3462 3.42599 13.2704C3.36268 13.1986 3.34314 13.1268 3.3372 13.0976C3.33196 13.0719 3.33373 13.0612 3.33365 13.085L4.33365 13.0882C4.33383 13.032 4.34179 12.797 4.17613 12.6091C3.9905 12.3985 3.73487 12.3988 3.64439 12.4007L3.66554 13.4005ZM2.18351 13.4041C2.67198 13.4072 3.16767 13.4104 3.66487 13.4005L3.64506 12.4007C3.1631 12.4102 2.68048 12.4072 2.18985 12.4041L2.18351 13.4041ZM2.13435 13.4038L2.18352 13.4041L2.18984 12.4041L2.14068 12.4038L2.13435 13.4038ZM0.502053 11.7638C0.503294 12.217 0.665563 12.631 0.96689 12.9337C1.26818 13.2364 1.68127 13.4004 2.13374 13.4038L2.14129 12.4038C1.92917 12.4022 1.77544 12.3285 1.6756 12.2282C1.5758 12.1279 1.50263 11.9738 1.50205 11.761L0.502053 11.7638ZM0.502053 8.62181C0.499316 9.66926 0.499316 10.7163 0.502053 11.7637L1.50205 11.7611C1.49932 10.7154 1.49932 9.67013 1.50205 8.62442L0.502053 8.62181ZM2.14175 6.96627C1.6849 6.9724 1.26868 7.13647 0.965392 7.44284C0.662075 7.74924 0.502666 8.16675 0.502052 8.62244L1.50205 8.62379C1.50235 8.4035 1.57632 8.24712 1.67607 8.14635C1.77585 8.04556 1.93238 7.96917 2.15516 7.96618L2.14175 6.96627ZM3.67492 6.9686C3.16286 6.9589 2.65135 6.95938 2.14169 6.96627L2.15522 7.96618C2.65659 7.9594 3.15701 7.95897 3.65598 7.96842L3.67492 6.9686ZM3.33365 7.29484C3.33365 7.31569 3.33204 7.30267 3.33783 7.27497C3.34438 7.2437 3.36488 7.17143 3.42866 7.0996C3.49571 7.02409 3.57311 6.99091 3.62257 6.97773C3.66427 6.96661 3.68856 6.96886 3.67512 6.9686L3.65577 7.96841C3.74303 7.9701 3.99323 7.96988 4.17642 7.76357C4.34071 7.57855 4.33365 7.34796 4.33365 7.29484H3.33365ZM3.33313 7.08387C3.33334 7.15476 3.33356 7.22516 3.33365 7.2955L4.33365 7.29417C4.33355 7.22283 4.33334 7.15157 4.33312 7.08082L3.33313 7.08387ZM3.411 5.17809C3.32861 5.8289 3.33127 6.47466 3.33313 7.08387L4.33312 7.08082C4.33123 6.46108 4.33014 5.87985 4.40308 5.30367L3.411 5.17809ZM7.86108 0.592272C5.48166 0.957834 3.71414 2.78505 3.411 5.17804L4.40307 5.30372C4.65057 3.34994 6.0784 1.87789 8.01293 1.58068L7.86108 0.592272ZM10.3352 0.530532C9.55019 0.498139 8.70904 0.461891 7.86102 0.592281L8.01299 1.58067C8.74914 1.46748 9.49308 1.49663 10.294 1.52968L10.3352 0.530532ZM10.3425 0.530832L10.3352 0.530532L10.294 1.52968L10.3013 1.52998L10.3425 0.530832ZM10.5965 0.540503C10.5108 0.537378 10.4265 0.534306 10.3425 0.530834L10.3012 1.52998C10.3881 1.53357 10.4748 1.53673 10.5601 1.53984L10.5965 0.540503ZM12.1353 0.680801C11.6082 0.576322 11.0785 0.558068 10.5965 0.540503L10.5601 1.53984C11.0555 1.55789 11.5051 1.57533 11.9409 1.66171L12.1353 0.680801ZM13.3945 2.14545C13.3793 1.38303 12.8371 0.820513 12.1357 0.68088L11.9405 1.66163C12.2282 1.71892 12.3898 1.91854 12.3947 2.16532L13.3945 2.14545ZM13.3972 5.42934C13.4206 4.33366 13.4155 3.23811 13.3945 2.14575L12.3947 2.16503C12.4155 3.24787 12.4205 4.32935 12.3974 5.40796L13.3972 5.42934ZM11.7563 6.9374C12.6078 6.92892 13.3775 6.35406 13.3972 5.4293L12.3974 5.40801C12.3916 5.68207 12.1758 5.93317 11.7464 5.93745L11.7563 6.9374ZM10.2232 6.93978C10.7316 6.94092 11.2434 6.94208 11.7559 6.93741L11.7468 5.93745C11.2409 5.94206 10.7348 5.94093 10.2254 5.93978L10.2232 6.93978ZM9.6515 6.93879C9.84185 6.93892 10.0323 6.93935 10.2232 6.93978L10.2254 5.93978C10.0347 5.93935 9.84344 5.93892 9.65215 5.93879L9.6515 6.93879ZM9.67182 6.81028C9.60851 6.88183 9.53748 6.91471 9.49448 6.92883C9.47429 6.93546 9.45921 6.93836 9.45243 6.93951C9.44552 6.94069 9.44293 6.94075 9.44665 6.94045C9.45576 6.93972 9.47451 6.93893 9.5124 6.93868C9.55047 6.93843 9.59211 6.93873 9.65131 6.93879L9.65234 5.9388C9.5596 5.9387 9.44962 5.93703 9.36712 5.94362C9.30484 5.94858 9.08508 5.96435 8.92293 6.14758L9.67182 6.81028ZM9.77485 6.81574C9.77459 6.7595 9.77323 6.71098 9.77219 6.67346C9.77104 6.63234 9.77057 6.6121 9.77077 6.59771C9.77085 6.59177 9.77102 6.59203 9.77065 6.59633C9.77029 6.60048 9.76907 6.61298 9.76514 6.63076C9.75706 6.66735 9.73453 6.73942 9.67182 6.81028L8.92293 6.14758C8.84029 6.24097 8.80486 6.3418 8.78868 6.41508C8.77361 6.48328 8.7714 6.54568 8.77087 6.58369C8.77031 6.62355 8.77163 6.66719 8.77257 6.70128C8.77362 6.73898 8.77466 6.777 8.77486 6.82034L9.77485 6.81574ZM9.75631 7.0754C9.76336 7.01356 9.77548 6.91326 9.77485 6.81483L8.77487 6.82126C8.77504 6.84822 8.77145 6.88578 8.76274 6.96216L9.75631 7.0754ZM9.65086 7.06395C9.697 7.10579 9.72171 7.15196 9.73366 7.18448C9.7444 7.21369 9.74462 7.23092 9.74427 7.22541C9.74396 7.22051 9.74371 7.20652 9.74579 7.1783C9.7479 7.14984 9.75139 7.11855 9.75631 7.0754L8.76274 6.96216C8.75468 7.03289 8.73836 7.1626 8.74624 7.28808C8.75411 7.41351 8.7909 7.63404 8.97908 7.8047L9.65086 7.06395ZM9.67355 6.97945C9.63159 6.98346 9.59923 6.98651 9.56938 6.9884C9.5397 6.99027 9.52182 6.99033 9.51183 6.98985C9.50083 6.98932 9.51058 6.98861 9.53239 6.99509C9.55547 7.00194 9.60259 7.02006 9.65131 7.06435L8.97863 7.80429C9.1518 7.96171 9.36098 7.98377 9.46402 7.9887C9.57808 7.99416 9.69747 7.98173 9.76877 7.97491L9.67355 6.97945ZM9.91822 6.96441C9.82813 6.96421 9.73519 6.97356 9.67355 6.97945L9.76877 7.97491C9.84233 7.96787 9.88408 7.96433 9.91601 7.9644L9.91822 6.96441ZM10.6529 6.96445C10.4074 6.96462 10.1625 6.96478 9.91788 6.96441L9.91635 7.96441C10.1623 7.96478 10.4082 7.96462 10.6536 7.96445L10.6529 6.96445ZM10.6766 11.2805C10.6725 11.3168 10.6766 11.184 10.8131 11.0838C10.8739 11.0392 10.9297 11.0254 10.9526 11.0212C10.9723 11.0175 10.9783 11.0192 10.9541 11.019L10.9477 12.019C11.0169 12.0194 11.2234 12.0231 11.4048 11.8899C11.6125 11.7375 11.6565 11.5133 11.6702 11.3938L10.6766 11.2805ZM10.8973 9.46361C10.8218 10.0668 10.746 10.6729 10.6766 11.2804L11.6701 11.3938C11.7388 10.7926 11.814 10.1919 11.8895 9.58775L10.8973 9.46361ZM10.9771 8.82336C10.9507 9.03668 10.924 9.24997 10.8973 9.46361L11.8895 9.58775C11.9163 9.37423 11.943 9.16027 11.9695 8.94617L10.9771 8.82336ZM11.3302 9.36267C11.3459 9.36176 11.3519 9.36147 11.3564 9.36136C11.36 9.36128 11.3565 9.36151 11.3488 9.36091C11.3314 9.35955 11.2945 9.35409 11.2519 9.33306L11.6947 8.43646C11.5026 8.34155 11.3124 8.36204 11.2728 8.36432L11.3302 9.36267ZM11.2463 9.36562C11.2814 9.36562 11.3142 9.36359 11.3302 9.36267L11.2727 8.36432C11.2629 8.36489 11.2572 8.3652 11.2522 8.36542C11.2475 8.36562 11.246 8.36562 11.2463 8.36562V9.36562ZM11.0571 9.36537L11.2457 9.36562L11.247 8.36562L11.0584 8.36537L11.0571 9.36537ZM8.04851 9.36789C9.05045 9.36275 10.0527 9.36406 11.0571 9.36537L11.0584 8.36537C10.0545 8.36406 9.04907 8.36275 8.04338 8.3679L8.04851 9.36789ZM7.3705 8.69136C7.3694 8.77549 7.36992 9.02148 7.56995 9.20446C7.75495 9.37369 7.98682 9.3681 8.04765 9.36789L8.04424 8.3679C8.02469 8.36797 8.03899 8.36626 8.06849 8.37269C8.10204 8.38001 8.17424 8.40196 8.24491 8.46661C8.31819 8.53364 8.34954 8.60951 8.36185 8.65624C8.37228 8.69587 8.37023 8.71851 8.37041 8.70439L7.3705 8.69136ZM7.37273 7.64928C7.37342 7.99969 7.37409 8.34643 7.37048 8.69266L8.37043 8.70308C8.37411 8.34964 8.37341 7.9967 8.37273 7.64732L7.37273 7.64928ZM7.37504 6.59313C7.37135 6.94682 7.37205 7.29988 7.37273 7.64928L8.37273 7.64732C8.37205 7.2969 8.37137 6.95002 8.37498 6.60354L7.37504 6.59313ZM9.45344 4.54123C8.87423 4.54293 8.35122 4.74076 7.96957 5.11614C7.58751 5.49192 7.3816 6.01178 7.37504 6.59269L8.37498 6.60398C8.3789 6.25637 8.498 5.99904 8.6708 5.82908C8.844 5.65873 9.1057 5.54226 9.45638 5.54123L9.45344 4.54123ZM9.66456 4.5409C9.59441 4.54102 9.52429 4.54113 9.45418 4.54123L9.45563 5.54123C9.52583 5.54113 9.59602 5.54101 9.66616 5.5409L9.66456 4.5409ZM11.3505 4.54398C10.7876 4.5391 10.2247 4.54 9.66456 4.5409L9.66616 5.5409C10.2272 5.54 10.7849 5.53911 11.3418 5.54394L11.3505 4.54398ZM11.0217 4.88481C11.0218 4.89815 11.0197 4.87228 11.0321 4.82863C11.0469 4.77637 11.0833 4.69766 11.1624 4.63171C11.2364 4.57007 11.3088 4.55235 11.3369 4.54716C11.3619 4.54252 11.373 4.54414 11.3497 4.54398L11.3426 5.54395C11.3834 5.54424 11.4486 5.54347 11.5188 5.53047C11.5921 5.51691 11.7007 5.48487 11.8028 5.39981C12.0196 5.21907 12.0227 4.96294 12.0216 4.87219L11.0217 4.88481ZM11.0203 2.65145C11.0157 3.3938 11.0134 4.13844 11.0217 4.88403L12.0216 4.87296C12.0134 4.13621 12.0157 3.3985 12.0203 2.65759L11.0203 2.65145ZM11.3506 2.98999C11.3502 2.98997 11.343 2.98955 11.3309 2.98732C11.3188 2.98509 11.2986 2.98047 11.2735 2.97076C11.2181 2.94932 11.1494 2.90679 11.0947 2.83292C11.0439 2.76437 11.0285 2.70001 11.0235 2.67229C11.0191 2.64729 11.0203 2.63474 11.0203 2.65239L12.0203 2.65665C12.0204 2.61465 12.0284 2.41333 11.8982 2.23761C11.7424 2.02739 11.5133 1.9979 11.41 1.99176L11.3506 2.98999ZM10.9318 2.96192C11.0698 2.97138 11.209 2.98092 11.3484 2.98985L11.4123 1.9919C11.2755 1.98314 11.1385 1.97375 11.0002 1.96427L10.9318 2.96192ZM8.52193 2.92488C9.30568 2.85152 10.0953 2.90457 10.9318 2.96192L11.0002 1.96427C10.1773 1.90784 9.30661 1.84707 8.42874 1.92924L8.52193 2.92488ZM6.46188 3.91734C6.98031 3.29849 7.67783 3.00393 8.52195 2.92488L8.42872 1.92924C7.39393 2.02614 6.42403 2.4053 5.69531 3.27517L6.46188 3.91734ZM5.7469 5.95197C5.77241 5.1751 5.98363 4.48723 6.4616 3.91767L5.69559 3.27484C5.04129 4.05453 4.77845 4.97482 4.74744 5.91915L5.7469 5.95197ZM5.73605 8.5721C5.7271 7.69003 5.71834 6.81969 5.7469 5.95201L4.74744 5.91911C4.71806 6.8119 4.72719 7.70377 4.7361 8.58225L5.73605 8.5721ZM5.73666 8.63218L5.73605 8.5721L4.7361 8.58224L4.73671 8.64232L5.73666 8.63218ZM4.98833 9.36877C5.06083 9.36968 5.31245 9.37957 5.51182 9.20664C5.73329 9.01454 5.73793 8.74363 5.73665 8.63156L4.73672 8.64294C4.73705 8.67201 4.73388 8.65958 4.74265 8.62725C4.75355 8.5871 4.78364 8.51448 4.85659 8.45121C4.92567 8.39129 4.9932 8.37478 5.01536 8.37056C5.03388 8.36703 5.03591 8.36929 5.00095 8.36885L4.98833 9.36877ZM3.80302 9.36464C4.20095 9.36436 4.59519 9.36408 4.98868 9.36877L5.0006 8.36884C4.59974 8.36407 4.19919 8.36436 3.80231 8.36464L3.80302 9.36464ZM2.57798 9.36011C2.98783 9.36523 3.39735 9.36493 3.80302 9.36464L3.80231 8.36464C3.39554 8.36493 2.99261 8.36521 2.59047 8.36019L2.57798 9.36011ZM2.89549 9.05157C2.89524 9.02385 2.89719 9.03271 2.89251 9.05699C2.8871 9.08508 2.8682 9.15881 2.80319 9.23245C2.735 9.3097 2.65681 9.34117 2.61232 9.3528C2.57555 9.36241 2.55708 9.35987 2.57862 9.36012L2.58983 8.36018C2.50289 8.35921 2.24126 8.35795 2.05348 8.57069C1.96146 8.67493 1.92581 8.78868 1.91057 8.86779C1.89606 8.94308 1.89511 9.01393 1.89554 9.06074L2.89549 9.05157ZM2.89549 11.3267C2.90327 10.5685 2.90327 9.80929 2.89549 9.05102L1.89554 9.06129C1.90325 9.81271 1.90325 10.5651 1.89554 11.3165L2.89549 11.3267ZM2.58354 11.0195C2.56291 11.0197 2.57999 11.0173 2.61475 11.0262C2.65617 11.0368 2.7305 11.0655 2.79744 11.1372C2.86264 11.2071 2.88438 11.2789 2.89136 11.3111C2.89736 11.3388 2.89528 11.3502 2.89549 11.3261L1.89553 11.3171C1.89491 11.3866 1.88863 11.629 2.06629 11.8194C2.25399 12.0206 2.50642 12.0204 2.59494 12.0194L2.58354 11.0195ZM3.71821 11.0161C3.34252 11.0157 2.96343 11.0154 2.58385 11.0195L2.59463 12.0194C2.96739 12.0154 3.34065 12.0157 3.71731 12.0161L3.71821 11.0161ZM4.99302 11.0108C4.56997 11.0168 4.14629 11.0165 3.71821 11.0161L3.71731 12.0161C4.14413 12.0165 4.57535 12.0169 5.0072 12.0107L4.99302 11.0108ZM5.73577 11.7513C5.73598 11.6661 5.7393 11.412 5.55411 11.2159C5.35856 11.0088 5.09453 11.0092 4.99186 11.0108L5.00836 12.0107C5.03807 12.0102 5.02803 12.0132 4.99891 12.006C4.96301 11.9972 4.89196 11.9712 4.82707 11.9025C4.76402 11.8357 4.74398 11.7678 4.73818 11.7416C4.73337 11.72 4.73585 11.7157 4.73577 11.7489L5.73577 11.7513ZM5.73083 15.9388C5.73143 14.5425 5.73203 13.1469 5.73577 11.7514L4.73577 11.7488C4.73203 13.1455 4.73143 14.5423 4.73083 15.9384L5.73083 15.9388ZM5.72757 19.3999C5.72984 18.2461 5.73033 17.0922 5.73083 15.9388L4.73083 15.9384C4.73033 17.0919 4.72984 18.245 4.72757 19.3979L5.72757 19.3999ZM5.42254 19.1022C5.39898 19.1025 5.41334 19.1001 5.44533 19.1077C5.48362 19.1169 5.55763 19.1433 5.62579 19.2135C5.69285 19.2826 5.71587 19.3547 5.72333 19.3874C5.72966 19.415 5.72749 19.426 5.72757 19.4003L4.72757 19.3975C4.72736 19.4722 4.72339 19.7195 4.90821 19.91C5.09911 20.1066 5.35229 20.1033 5.43646 20.1021L5.42254 19.1022ZM7.66071 19.1027C6.91385 19.0912 6.1674 19.0926 5.42304 19.1022L5.43596 20.1021C6.17304 20.0926 6.90984 20.0913 7.64534 20.1026L7.66071 19.1027ZM7.3782 19.3805C7.37828 19.4122 7.37569 19.4044 7.38179 19.3783C7.38922 19.3466 7.41315 19.273 7.48355 19.2041C7.55384 19.1352 7.62768 19.1128 7.65896 19.1061C7.68461 19.1006 7.69235 19.1032 7.6606 19.1027L7.64545 20.1026C7.72451 20.1038 7.98557 20.1122 8.18339 19.9184C8.38212 19.7236 8.37841 19.4617 8.3782 19.378L7.3782 19.3805ZM7.37346 15.389C7.37405 16.7191 7.37463 18.0498 7.3782 19.3806L8.3782 19.3779C8.37463 18.0484 8.37405 16.7188 8.37346 15.3886L7.37346 15.389ZM7.36954 11.7321C7.37238 12.9509 7.37292 14.1697 7.37346 15.389L8.37346 15.3886C8.37292 14.1694 8.37238 12.9496 8.36954 11.7298L7.36954 11.7321ZM8.08806 11.0117C7.99334 11.0107 7.73513 11.0111 7.54425 11.2162C7.36484 11.4089 7.36934 11.656 7.36954 11.7323L8.36954 11.7296C8.36946 11.7004 8.37169 11.7076 8.36646 11.7315C8.36029 11.7598 8.33982 11.8292 8.2762 11.8976C8.21054 11.9681 8.13779 11.9959 8.09866 12.0059C8.06645 12.014 8.05256 12.0114 8.07767 12.0117L8.08806 11.0117ZM9.60647 11.016C9.0982 11.016 8.59244 11.016 8.08716 11.0117L8.07858 12.0117C8.58888 12.0161 9.09895 12.016 9.60651 12.016L9.60647 11.016ZM10.9543 11.019C10.5042 11.016 10.0544 11.016 9.60647 11.016L9.60651 12.016C10.055 12.016 10.5015 12.016 10.9476 12.019L10.9543 11.019Z" fill="#26CE8D"/>
</svg>
